<?xml version="1.0" standalone="no"?><!DOCTYPE svg PUBLIC "-//W3C//DTD SVG 1.1//EN" "http://www.w3.org/Graphics/SVG/1.1/DTD/svg11.dtd"><svg t="1495978866175" class="icon" style="" viewBox="0 0 1024 1024" version="1.1" xmlns="http://www.w3.org/2000/svg" p-id="4531" xmlns:xlink="http://www.w3.org/1999/xlink" width="16" height="16"><defs><style type="text/css"></style></defs><path d="M749.888357 496.40155c-38.297624-7.428102-19.682213-28.047294-19.682213-28.047294s37.473533-61.761621-7.416813-106.668901c-55.631743-55.620455-190.822073 7.078146-190.822073 7.078146C480.343077 384.782463 494.030879 361.448288 501.323514 321.733906c0-46.786883-16.024606-125.972935-153.563029-79.202985-137.4086 47.02395-255.377699 211.785577-255.377699 211.785577C10.340641 563.801981 21.200571 648.417998 21.200571 648.417998c20.495014 186.797577 218.976612 238.077446 373.352442 250.213023 162.419178 12.745178 381.621568-55.9817 448.090664-197.172084C909.107129 560.03713 788.327092 504.066719 749.888357 496.40155zM406.575701 845.951328c-161.228198 7.540991-291.575586-73.310175-291.575586-180.904766 0-107.724414 130.347388-194.101501 291.575586-201.535248 161.341087-7.428102 291.936831 59.040994 291.936831 166.533985C698.512532 737.63989 567.916788 838.63047 406.575701 845.951328z" p-id="4532" fill="#ffffff"></path><path d="M374.407955 534.462107c-162.170822 18.976656-143.425589 170.868926-143.425589 170.868926s-1.665114 48.102041 43.479233 72.598974c94.888924 51.398403 192.583143 20.280525 241.960831-43.4623C565.800118 670.707949 536.815844 515.620918 374.407955 534.462107zM333.502593 747.664442c-30.276854 3.533429-54.677831-13.91358-54.677831-39.251537 0-25.213778 21.674705-51.624181 51.968492-54.79072 34.786773-3.30765 57.415391 16.735808 57.415391 42.073764C388.214291 720.909727 363.672203 744.226969 333.502593 747.664442zM429.097075 666.220608c-10.250329 7.659525-22.876974 6.604012-28.290006-2.596449-5.650099-8.957749-3.533429-23.334175 6.841079-30.880811 12.022688-8.94646 24.513866-6.372589 29.926898 2.607738C442.999366 644.528969 439.115981 658.324016 429.097075 666.220608z" p-id="4533" fill="#ffffff"></path><path d="M828.859919 430.632366c13.061268 0 24.175199-9.663306 26.043513-22.278662 0.231423-0.942624 0.349956-1.766714 0.349956-2.822227 19.806391-178.07125-145.909149-147.427507-145.909149-147.427507-14.715093 0-26.512003 11.904155-26.512003 26.74907 0 14.607848 11.79691 26.512003 26.512003 26.512003 119.024612-26.28058 92.76661 92.749676 92.76661 92.749676C802.105205 418.846745 814.099671 430.632366 828.859919 430.632366z" p-id="4534" fill="#ffffff"></path><path d="M809.538952 119.814835c-57.291213-13.416868-116.219318-1.857026-132.723703 1.309513-1.281291 0.118534-2.472271 1.320802-3.651962 1.557869-0.575734 0.112889-0.925691 0.705557-0.925691 0.705557-16.272962 4.605875-28.177117 19.670924-28.177117 37.473533 0 21.217504 17.198653 38.670158 38.653224 38.670158 0 0 20.867548-2.799649 35.001262-8.331215 14.020825-5.650099 132.701125-4.210763 191.640519 94.78168 32.162102 72.243373 14.139358 120.588126 11.887221 128.36054 0 0-7.65388 18.773456-7.65388 37.2534 0 21.336038 17.215586 34.741617 38.517757 34.741617 17.819543 0 32.782992-2.427115 37.151799-32.562858l0.237067 0C1052.781073 242.841365 912.064823 143.736034 809.538952 119.814835z" p-id="4535" fill="#ffffff"></path></svg>