<?xml version="1.0" standalone="no"?><!DOCTYPE svg PUBLIC "-//W3C//DTD SVG 1.1//EN" "http://www.w3.org/Graphics/SVG/1.1/DTD/svg11.dtd"><svg t="1495978722654" class="icon" style="" viewBox="0 0 1024 1024" version="1.1" xmlns="http://www.w3.org/2000/svg" p-id="2520" xmlns:xlink="http://www.w3.org/1999/xlink" width="16" height="16"><defs><style type="text/css"></style></defs><path d="M499.228 350.273c25.513 0 42.563-17.081 42.563-42.532 0-25.73-17.019-42.377-42.563-42.377s-51.181 16.647-51.181 42.377c0.031 25.451 25.668 42.532 51.181 42.532zM261.179 265.364c-25.513 0-51.305 16.647-51.305 42.377 0 25.451 25.792 42.532 51.305 42.532 25.42 0 42.439-17.081 42.439-42.532-0.031-25.73-17.019-42.377-42.439-42.377zM1008 622.546c0-134.54-124.806-249.178-278.008-261.113 0.217-1.674 0.31-3.41-0.062-5.146-30.721-143.22-184.729-251.193-358.267-251.193-196.106 0-355.663 136.741-355.663 304.823 0 90.179 46.035 171.43 133.269 235.507l-30.411 91.419c-1.953 5.952-0.186 12.493 4.557 16.616 2.883 2.48 6.51 3.782 10.168 3.782 2.356 0 4.743-0.558 6.944-1.643l114.173-57.133 14.074 2.852c35.154 7.223 65.503 13.485 102.889 13.485 11.005 0 22.165-0.496 33.108-1.426 4.433-0.372 8.184-2.604 10.726-5.828 41.168 103.013 154.628 177.382 288.145 177.382 34.193 0 68.82-8.246 99.882-16.027l88.009 48.112c2.325 1.271 4.898 1.922 7.44 1.922 3.472 0 6.944-1.178 9.734-3.441 4.898-3.968 6.913-10.509 5.084-16.492l-22.475-74.741c75.361-59.551 116.684-130.789 116.684-201.717zM402.136 682.469c-10.075 0.868-20.305 1.302-30.442 1.302-34.224 0-63.178-5.921-96.658-12.834l-19.468-3.937c-3.348-0.713-6.882-0.248-9.951 1.333l-85.529 42.811 22.227-66.774c2.17-6.541-0.217-13.671-5.828-17.608-85.932-59.892-129.487-132.866-129.487-216.845 0-150.97 145.638-273.823 324.663-273.823 158.255 0 298.375 96.286 327.298 224.347-165.943 2.17-300.204 118.823-300.204 262.105 0 20.832 3.162 41.013 8.494 60.481-1.612-0.403-3.317-0.713-5.115-0.558zM864.098 806.066c-5.177 3.906-7.378 10.633-5.518 16.833l14.663 48.763-60.171-32.922c-2.294-1.271-4.867-1.922-7.44-1.922-1.271 0-2.542 0.155-3.782 0.496-32.271 8.153-65.658 16.554-98.177 16.554-151.032 0-273.885-103.788-273.885-231.353 0-127.565 122.853-231.322 273.885-231.322 148.149 0 273.327 105.927 273.327 231.322 0 63.612-40.083 128.805-112.902 183.551zM609.836 511.969c-17.019 0-34.038 17.143-34.038 34.131 0 17.112 17.019 34.007 34.038 34.007 25.575 0 42.47-16.895 42.47-34.007 0-17.019-16.895-34.131-42.47-34.131zM796.828 511.969c-16.771 0-33.79 17.143-33.79 34.131 0 17.112 17.019 34.007 33.79 34.007 25.482 0 42.687-16.895 42.687-34.007 0-17.019-17.174-34.131-42.687-34.131z" p-id="2521" fill="#ffffff"></path></svg>