<?xml version="1.0" standalone="no"?><!DOCTYPE svg PUBLIC "-//W3C//DTD SVG 1.1//EN" "http://www.w3.org/Graphics/SVG/1.1/DTD/svg11.dtd"><svg t="1510024103963" class="icon" style="" viewBox="0 0 1024 1024" version="1.1" xmlns="http://www.w3.org/2000/svg" p-id="7687" xmlns:xlink="http://www.w3.org/1999/xlink" width="16" height="16"><defs><style type="text/css"></style></defs><path d="M511.618 0C229.04 0 0 228.996 0 511.617c0 282.542 229.04 511.62 511.618 511.62 282.541 0 511.617-229.078 511.617-511.62C1023.234 228.998 794.158 0 511.618 0m318.803 386.003L472.398 731.245a58.269 58.269 0 0 1-15.863 11.286c-22.483 15.983-53.961 13.987-74.111-6.166L228.665 582.566c-22.486-22.482-22.486-58.917 0-81.359 22.481-22.564 58.912-22.564 81.394 0l115.413 115.374 323.552-311.934c22.442-22.525 58.915-22.525 81.397 0 22.482 22.444 22.482 58.914 0 81.356m0 0z" p-id="7688" fill="#d6204b"></path></svg>