<?xml version="1.0" standalone="no"?><!DOCTYPE svg PUBLIC "-//W3C//DTD SVG 1.1//EN" "http://www.w3.org/Graphics/SVG/1.1/DTD/svg11.dtd"><svg t="1495105473405" class="icon" style="" viewBox="0 0 1024 1024" version="1.1" xmlns="http://www.w3.org/2000/svg" p-id="3955" xmlns:xlink="http://www.w3.org/1999/xlink" width="200" height="200"><defs><style type="text/css"></style></defs><path d="M921.6 94.487273h-65.629091C852.061091 57.157818 820.410182 27.927273 781.963636 27.927273H242.036364c-38.446545 0-70.097455 29.230545-74.007273 66.56H102.4c-41.053091 0-74.472727 33.419636-74.472727 74.472727v1.954909l50.082909 239.802182c5.399273 25.786182 28.392727 44.404364 54.644363 44.404364H201.076364l6.330181 66.932363c4.840727 50.827636 28.299636 97.745455 66.094546 132.096 37.794909 34.350545 86.667636 53.248 137.774545 53.248h33.885091v141.125818H344.436364c-20.573091 0-37.236364 16.663273-37.236364 37.236364v72.983273c0 20.573091 16.663273 37.236364 37.236364 37.236363h335.127272c20.573091 0 37.236364-16.663273 37.236364-37.236363v-72.983273c0-20.573091-16.663273-37.236364-37.236364-37.236364H575.581091V707.490909h37.143273c51.106909 0 99.979636-18.897455 137.774545-53.248 37.794909-34.350545 61.253818-81.268364 66.094546-132.096L822.923636 455.214545h68.421819c26.344727 0 49.338182-18.711273 54.644363-44.404363l50.082909-239.802182v-1.954909c0-41.146182-33.419636-74.565818-74.472727-74.565818zM679.563636 885.853091v73.076364H344.436364v-72.983273h231.144727l103.982545-0.093091z m-197.073454-37.236364V708.514909h55.854545v140.101818h-55.854545zM242.036364 65.163636h539.927272c20.293818 0 36.770909 16.290909 37.236364 36.398546l-4.561455 47.848727H209.361455l-4.561455-47.848727c0.465455-20.107636 16.942545-36.398545 37.236364-36.398546zM132.654545 417.885091c-8.750545 0-16.477091-6.237091-18.245818-14.801455L65.163636 167.284364c0.930909-19.735273 17.221818-35.467636 37.236364-35.467637h67.863273L197.538909 417.978182h-64.884364z m592.709819 208.802909C694.458182 654.801455 654.429091 670.254545 612.631273 670.254545H411.368727c-41.797818 0-81.826909-15.453091-112.733091-43.566545-30.906182-28.113455-50.082909-66.466909-54.085818-108.078545l-31.650909-331.869091h598.202182l-31.650909 331.869091c-3.909818 41.518545-23.179636 79.965091-54.085818 108.078545zM909.591273 403.083636c-1.768727 8.564364-9.495273 14.801455-18.245818 14.801455h-64.884364l27.275636-286.161455H921.6c19.921455 0 36.305455 15.732364 37.236364 35.467637L909.591273 403.083636z" fill="#353535" p-id="3956"></path><path d="M654.242909 354.397091l-80.989091-11.729455-36.212363-73.355636c-4.747636-9.588364-14.336-15.546182-25.041455-15.546182-10.705455 0-20.293818 5.957818-25.041455 15.546182l-36.212363 73.355636-80.989091 11.729455c-10.612364 1.582545-19.269818 8.843636-22.528 18.990545-3.351273 10.146909-0.558545 21.131636 7.074909 28.672l58.647273 57.157819-13.870546 80.709818c-1.768727 10.519273 2.420364 21.038545 11.077818 27.275636 8.657455 6.330182 19.921455 7.074909 29.416728 2.141091l72.424727-38.074182 72.424727 38.074182c4.096 2.141091 8.564364 3.258182 13.032728 3.258182 5.771636 0 11.450182-1.768727 16.384-5.399273 8.657455-6.330182 12.939636-16.756364 11.077818-27.275636l-13.870546-80.709818 58.647273-57.157819c7.633455-7.447273 10.333091-18.432 7.074909-28.672s-11.915636-17.408-22.528-18.990545z m-69.073454 78.103273c-8.750545 8.564364-12.753455 20.852364-10.705455 32.954181l10.612364 62.091637-55.761455-29.323637c-10.891636-5.678545-23.831273-5.678545-34.629818 0l-55.761455 29.323637 10.612364-62.091637c2.048-12.101818-1.954909-24.389818-10.705455-32.954181L393.774545 388.561455l62.37091-9.029819c12.101818-1.768727 22.621091-9.402182 28.020363-20.386909l27.834182-56.506182 27.834182 56.506182c5.399273 10.984727 15.918545 18.618182 28.020363 20.386909l62.37091 9.029819-45.056 43.938909z" fill="#FEC500" p-id="3957"></path></svg>