<?xml version="1.0" standalone="no"?><!DOCTYPE svg PUBLIC "-//W3C//DTD SVG 1.1//EN" "http://www.w3.org/Graphics/SVG/1.1/DTD/svg11.dtd"><svg t="1495377948269" class="icon" style="" viewBox="0 0 1024 1024" version="1.1" xmlns="http://www.w3.org/2000/svg" p-id="2441" xmlns:xlink="http://www.w3.org/1999/xlink" width="32" height="32"><defs><style type="text/css"></style></defs><path d="M512.006144 1019.902976c-0.043008 0-0.083968 0-0.126976 0-68.690944-0.016384-135.341056-13.4912-198.09792-40.052736-60.60032-25.648128-115.01568-62.352384-161.733632-109.09184S68.651008 769.586176 43.031552 708.972544C16.499712 646.204416 3.054592 579.54816 3.072 510.856192c0.016384-68.690944 13.492224-135.340032 40.05376-198.09792 25.649152-60.60032 62.353408-115.01568 109.092864-161.733632 46.74048-46.718976 101.173248-83.397632 161.784832-109.017088C376.730624 15.494144 443.350016 2.048 511.992832 2.048c0.04608 0 0.080896 0 0.126976 0 68.690944 0.016384 135.340032 13.492224 198.096896 40.05376 60.60032 25.649152 115.014656 62.353408 161.732608 109.093888s83.396608 101.172224 109.017088 161.785856c26.530816 62.769152 39.974912 129.425408 39.958528 198.116352-0.022528 95.492096-26.653696 188.572672-77.01504 269.180928l-52.10624-32.553984c44.25728-70.839296 67.6608-152.66816 67.68128-236.642304 0.01536-60.423168-11.798528-119.026688-35.111936-174.180352-22.523904-53.28896-54.781952-101.15584-95.879168-142.271488-41.096192-41.116672-88.947712-73.397248-142.225408-95.946752C631.126016 75.343872 572.52864 63.502336 512.105472 63.488c-0.036864 0-0.074752 0-0.111616 0-60.38528 0-118.949888 11.812864-174.06976 35.111936-53.287936 22.523904-101.154816 54.782976-142.271488 95.879168-41.116672 41.097216-73.397248 88.948736-95.946752 142.226432C76.366848 391.849984 64.526336 450.44736 64.512 510.871552c-0.014336 60.423168 11.798528 119.026688 35.111936 174.180352 22.523904 53.28896 54.782976 101.154816 95.879168 142.272512 41.096192 41.115648 88.948736 73.396224 142.226432 95.944704 55.143424 23.339008 113.7408 35.17952 174.164992 35.193856 0.034816 0 0.077824 0 0.111616 0 51.145728 0 101.280768-8.548352 149.03296-25.408512 46.186496-16.309248 89.196544-40.031232 127.837184-70.506496l38.047744 48.24064c-43.942912 34.659328-92.87168 61.641728-145.42848 80.19968C627.160064 1010.174976 570.134528 1019.902976 512.006144 1019.902976z" p-id="2442" fill="#f4ea2a"></path><path d="M765.62432 107.54048" p-id="2443" fill="#f4ea2a"></path><path d="M765.62432 107.54048" p-id="2444" fill="#f4ea2a"></path><path d="M764.032 106.546176" p-id="2445" fill="#f4ea2a"></path><path d="M765.62432 107.54048" p-id="2446" fill="#f4ea2a"></path><path d="M764.032 106.546176" p-id="2447" fill="#f4ea2a"></path><path d="M765.62432 107.54048" p-id="2448" fill="#f4ea2a"></path><path d="M764.032 107.54048" p-id="2449" fill="#f4ea2a"></path><path d="M551.000064 405.423104l51.600384 0L553.40032 653.423616c-2.668544 13.336576-4.66944 26.000384-5.999616 37.999616-1.338368 12.000256-1.999872 22.537216-1.999872 31.599616 0 11.737088 3.131392 20.868096 9.40032 27.400192 6.26176 6.537216 15.130624 9.79968 26.600448 9.79968 6.4 0 14.799872-0.93184 25.199616-2.799616 10.399744-1.862656 23.600128-4.800512 39.600128-8.800256l0 39.999488c-38.137856 12.8-69.799936 21.999616-94.999552 27.599872s-47.137792 8.399872-65.800192 8.399872c-27.4688 0-47.868928-5.799936-61.200384-17.399808-13.3376-11.599872-19.999744-29.262848-19.999744-53.000192 0-6.131712 0.930816-15.332352 2.799616-27.599872 1.862656-12.263424 4.5312-26.53184 7.999488-42.800128l41.6-197.200896-70.4-9.199616 0-37.600256L551.000064 405.423104zM567.400448 207.823872c22.130688 0 39.131136 5.269504 51.00032 15.80032 11.862016 10.537984 17.800192 25.79968 17.800192 45.800448 0 22.669312-7.938048 41.40032-23.799808 56.200192-15.868928 14.799872-35.800064 22.20032-59.799552 22.20032-21.0688 0-37.938176-5.530624-50.599936-16.600064-12.668928-11.062272-19.00032-25.662464-19.00032-43.799552 0-22.662144 8.061952-41.6 24.200192-56.800256C523.33056 215.424 543.399936 207.823872 567.400448 207.823872z" p-id="2450" fill="#f4ea2a"></path></svg>