<?xml version="1.0" standalone="no"?><!DOCTYPE svg PUBLIC "-//W3C//DTD SVG 1.1//EN" "http://www.w3.org/Graphics/SVG/1.1/DTD/svg11.dtd"><svg t="1498552399814" class="icon" style="" viewBox="0 0 1093 1024" version="1.1" xmlns="http://www.w3.org/2000/svg" p-id="2378" xmlns:xlink="http://www.w3.org/1999/xlink" width="34.15625" height="32"><defs><style type="text/css"></style></defs><path d="M1082.971587 434.823441C1093.966111 423.921254 1093.966111 406.193766 1082.971587 395.287484L913.753122 227.516689C908.228321 222.086758 901.004213 219.35063 893.785614 219.35063 886.567014 219.35063 879.347036 222.03351 873.818105 227.516689 862.822202 238.41751 862.822202 256.144998 873.818105 267.052646L994.865289 387.062716 639.90904 387.062716C624.342643 387.062716 611.706652 399.591014 611.706652 415.026108 611.706652 430.459836 624.342643 442.988134 639.90904 442.988134L994.865289 442.988134 873.818105 563.003665C862.822202 573.905852 862.822202 591.63334 873.818105 602.539622 884.818138 613.44727 902.698011 613.44727 913.699417 602.539622L1082.912372 434.770193 1082.971587 434.823441ZM87.377244 0C39.199369 0 0 38.252893 0 85.258978L0 767.307209C0 809.706353 31.277575 855.975608 71.182367 872.681329L371.894801 998.407857C382.2614 1002.727561 392.805777 1004.885333 402.883664 1004.885333 415.295422 1004.885333 427.061491 1001.589705 437.194845 995.11223 455.544394 983.345097 466.033304 962.426525 466.033304 937.818228L466.033304 852.560643 611.667733 852.560643C659.845609 852.560643 699.050667 814.307744 699.050667 767.307209L699.050667 596.790644C699.050667 581.104835 686.000326 568.377461 669.923497 568.377461 653.845241 568.377461 640.794904 581.104835 640.794904 596.790644L640.794904 767.307209C640.794904 782.994412 627.745988 795.727333 611.667733 795.727333L466.033304 795.727333 466.033304 255.769996C466.033304 213.424972 434.75004 167.161271 394.845247 150.450001L171.033948 56.838856 611.667733 56.838856C627.745988 56.838856 640.794904 69.571781 640.794904 85.258978L640.794904 255.769996C640.794904 271.455805 653.845241 284.18873 669.923497 284.18873 686.000326 284.18873 699.050667 271.455805 699.050667 255.769996L699.050667 85.258978C699.050667 38.252893 659.845609 0 611.667733 0L87.377244 0ZM58.250074 767.307209 58.250074 85.258978C58.250074 80.764433 59.299676 76.504399 61.222525 72.753625L371.894801 202.681913C390.651106 210.524818 407.777541 235.817214 407.777541 255.769996L407.777541 937.818228C407.777541 943.732326 406.205982 947.027954 405.15638 947.651004 404.105355 948.274046 400.438859 948.447505 394.845247 946.117666L94.138502 820.389745C75.377931 812.54684 58.250074 787.254443 58.250074 767.307209Z" p-id="2379" fill="#8a8a8a"></path></svg>