<?xml version="1.0" standalone="no"?><!DOCTYPE svg PUBLIC "-//W3C//DTD SVG 1.1//EN" "http://www.w3.org/Graphics/SVG/1.1/DTD/svg11.dtd"><svg t="1495978767798" class="icon" style="" viewBox="0 0 1024 1024" version="1.1" xmlns="http://www.w3.org/2000/svg" p-id="3810" xmlns:xlink="http://www.w3.org/1999/xlink" width="16" height="16"><defs><style type="text/css"></style></defs><path d="M632.621 219.586v0 0 0zM512 44.139c-18.276 0-36.553 0-51.172 3.655-43.861 3.655-84.069 14.621-120.621 29.241 0 0 314.345 310.689 321.654 321.654v-328.965c-10.964-3.655-18.276-7.311-29.241-7.311-36.553-10.964-76.758-18.276-120.621-18.276v0zM632.621 219.586v0 0 0 0zM800.757 387.724v0 0 0zM840.965 179.38c-10.964-10.964-25.585-25.585-40.207-36.553-32.897-25.585-69.449-47.517-106-62.138 0 0 3.655 442.276 0 456.896l233.931-233.931c-3.655-7.311-10.964-18.276-14.621-25.585-18.276-36.553-43.861-69.449-73.103-98.69v0zM800.757 387.724v0 0 0 0zM804.414 632.621v0 0 0zM943.31 340.207c0 0-310.689 314.345-321.654 321.654h332.62c3.655-10.964 7.311-18.276 7.311-29.241 10.964-40.207 14.621-80.414 14.621-120.621 0-18.276 0-36.553-3.655-51.172-3.655-43.861-10.964-84.069-29.241-120.621v0zM804.414 632.621v0 0 0 0zM632.621 804.414v0 0 0zM482.759 698.414l233.931 233.931c7.311-3.655 18.276-7.311 25.585-14.621 32.897-18.276 65.793-43.861 95.034-73.103 10.964-10.964 25.585-25.585 36.553-40.207 25.585-32.897 47.517-69.449 62.138-106 3.655 0-438.62 0-453.241 0v0zM632.621 804.414v0 0 0 0zM391.379 804.414v0 0 0zM362.139 621.655v332.62c10.964 3.655 18.276 7.311 29.241 7.311 40.207 10.964 80.414 14.621 120.621 14.621 18.276 0 36.553 0 51.172-3.655 43.861-3.655 84.069-14.621 120.621-29.241 0 3.655-314.345-307.034-321.654-321.654v0zM391.379 804.414v0 0 0 0zM223.243 632.621v0 0 0zM329.243 486.415l-233.931 233.931c3.655 7.311 10.964 18.276 14.621 25.585 18.276 32.897 43.861 65.793 73.103 95.034 10.964 10.964 25.585 25.585 40.207 36.553 32.897 25.585 69.449 47.517 106 62.138 0 3.655-3.655-442.276 0-453.241v0zM223.243 632.621v0 0 0 0zM223.243 391.379v0 0 0zM62.415 391.379c-10.964 40.207-14.621 80.414-14.621 120.621 0 18.276 0 36.553 3.655 51.172 3.655 43.861 14.621 84.069 29.241 120.621 0 0 310.689-314.345 321.654-321.654h-332.62c-3.655 10.964-3.655 18.276-7.311 29.241v0zM223.243 391.379v0 0 0 0zM391.379 223.243v0 0 0zM278.069 109.932c-32.897 18.276-65.793 43.861-95.034 73.103-14.621 10.964-25.585 25.585-36.553 40.207-25.585 32.897-47.517 69.449-62.138 106 0 0 442.276-3.655 456.896 0l-233.931-233.931c-10.964 3.655-21.932 7.311-29.241 14.621v0zM391.379 223.243v0 0 0 0zM391.379 223.243z" p-id="3811" fill="#ffffff"></path></svg>