<?xml version="1.0" standalone="no"?><!DOCTYPE svg PUBLIC "-//W3C//DTD SVG 1.1//EN" "http://www.w3.org/Graphics/SVG/1.1/DTD/svg11.dtd"><svg t="1495975571473" class="icon" style="" viewBox="0 0 1024 1024" version="1.1" xmlns="http://www.w3.org/2000/svg" p-id="1506" xmlns:xlink="http://www.w3.org/1999/xlink" width="16" height="16"><defs><style type="text/css"></style></defs><path d="M930.909091 176.872727c-10.24 0-18.618182 8.378182-18.618182 18.618182v723.316364c0 22.062545-14.242909 40.029091-31.650909 40.029091H143.36c-17.408 0-31.650909-17.966545-31.650909-40.029091V195.490909c0-10.24-8.378182-18.618182-18.618182-18.618182s-18.618182 8.378182-18.618182 18.618182v723.316364c0 42.635636 30.906182 77.265455 68.887273 77.265454h737.28c37.981091 0 68.887273-34.629818 68.887273-77.265454V195.490909c0-10.24-8.378182-18.618182-18.618182-18.618182zM977.454545 111.709091H716.8V65.163636c0-20.573091-16.663273-37.236364-37.236364-37.236363H344.436364c-20.573091 0-37.236364 16.663273-37.236364 37.236363v46.545455H46.545455c-10.24 0-18.618182 8.378182-18.618182 18.618182s8.378182 18.618182 18.618182 18.618182h930.90909c10.24 0 18.618182-8.378182 18.618182-18.618182s-8.378182-18.618182-18.618182-18.618182zM344.436364 65.163636h335.127272v46.545455H344.436364V65.163636z" fill="#ffffff" p-id="1507"></path><path d="M512 868.072727c10.24 0 18.618182-8.378182 18.618182-18.618182v-577.163636c0-10.24-8.378182-18.618182-18.618182-18.618182s-18.618182 8.378182-18.618182 18.618182v577.163636c0 10.24 8.378182 18.618182 18.618182 18.618182zM316.509091 868.072727c10.24 0 18.618182-8.378182 18.618182-18.618182v-577.163636c0-10.24-8.378182-18.618182-18.618182-18.618182s-18.618182 8.378182-18.618182 18.618182v577.163636c0 10.24 8.378182 18.618182 18.618182 18.618182zM707.490909 868.072727c10.24 0 18.618182-8.378182 18.618182-18.618182v-577.163636c0-10.24-8.378182-18.618182-18.618182-18.618182s-18.618182 8.378182-18.618182 18.618182v577.163636c0 10.24 8.378182 18.618182 18.618182 18.618182z" fill="#ffffff" p-id="1508"></path></svg>