<?xml version="1.0" standalone="no"?><!DOCTYPE svg PUBLIC "-//W3C//DTD SVG 1.1//EN" "http://www.w3.org/Graphics/SVG/1.1/DTD/svg11.dtd"><svg t="1510020532673" class="icon" style="" viewBox="0 0 1024 1024" version="1.1" xmlns="http://www.w3.org/2000/svg" p-id="6028" xmlns:xlink="http://www.w3.org/1999/xlink" width="16" height="16"><defs><style type="text/css"></style></defs><path d="M693.248 325.632H328.192c-18.432 0-33.28 14.848-33.28 33.28h431.104c0.512-18.432-14.336-33.28-32.768-33.28zM342.528 707.072c0 18.432 17.408 33.28 35.328 33.28h265.216c18.432 0 33.28-14.848 33.28-33.28V392.192H345.088l-2.56 314.88zM593.92 475.136c0-9.216 7.168-16.384 16.384-16.384 9.216 0 16.384 7.168 16.384 16.384v182.272c0 9.216-7.168 16.384-16.384 16.384-9.216 0-16.384-7.168-16.384-16.384V475.136z m-99.84 0c0-9.216 7.168-16.384 16.384-16.384 9.216 0 16.384 7.168 16.384 16.384v182.272c0 9.216-7.168 16.384-16.384 16.384-9.216 0-16.384-7.168-16.384-16.384V475.136z m-99.328 0c0-9.216 7.168-16.384 16.384-16.384 9.216 0 16.384 7.168 16.384 16.384v182.272c0 9.216-7.168 16.384-16.384 16.384-9.216 0-16.384-7.168-16.384-16.384V475.136zM560.64 275.968H461.312c-12.288 0-23.04 6.656-28.672 16.384h156.672a33.1264 33.1264 0 0 0-28.672-16.384z" p-id="6029" fill="#1afa29"></path><path d="M510.976 65.024c-244.736 0-442.88 198.144-442.88 442.88s198.144 442.88 442.88 442.88 442.88-198.144 442.88-442.88-198.144-442.88-442.88-442.88z m231.936 327.168h-33.28v315.392c0 36.352-29.696 66.56-66.56 66.56H378.368c-36.352 0-66.56-29.696-66.56-66.56V392.192h-49.664v-32.768c0-36.352 29.696-66.56 66.56-66.56h68.608c7.168-28.672 33.28-49.664 64-49.664h99.328c30.72 0 56.832 20.992 64 49.664h68.608c36.352 0 66.56 29.696 66.56 66.56v32.768h-16.896z" p-id="6030" fill="#1afa29"></path></svg>