<?xml version="1.0" standalone="no"?><!DOCTYPE svg PUBLIC "-//W3C//DTD SVG 1.1//EN" "http://www.w3.org/Graphics/SVG/1.1/DTD/svg11.dtd"><svg t="1495978917073" class="icon" style="" viewBox="0 0 1000 1000" version="1.1" xmlns="http://www.w3.org/2000/svg" p-id="5967" xmlns:xlink="http://www.w3.org/1999/xlink" width="16" height="16"><defs><style type="text/css"></style></defs><path d="M26.8061 9.8717l946.3916 0 0 106.6088-946.3916 0 0-106.6088ZM890.9445 644.4567V227.68970186316778H109.05797780317651v416.7657624798269H890.9445204324446zM222.4629 334.2248h556.2583925102896v203.7543156643H222.46288558705416V334.2247792828128zM721.799 884.6825c34.021-52.0803 66.1245-112.4821 95.8748-181.0393l-113.7297-41.4579c-29.5704 81.2407-64.031 155.5226-103.2059 222.4972H402.79927301343423c-32.8406-86.8004-69.8419-161.0261-111.3751-222.4972l-104.6036 41.4579c43.1533 64.725 77.9087 124.9794 104.6036 181.0393H0v105.44585621280784h1000.0012491178106v-105.44585621280784H721.7989794707488z" p-id="5968" fill="#ffffff"></path></svg>