<?xml version="1.0" standalone="no"?><!DOCTYPE svg PUBLIC "-//W3C//DTD SVG 1.1//EN" "http://www.w3.org/Graphics/SVG/1.1/DTD/svg11.dtd"><svg t="1495975503569" class="icon" style="" viewBox="0 0 1024 1024" version="1.1" xmlns="http://www.w3.org/2000/svg" p-id="824" xmlns:xlink="http://www.w3.org/1999/xlink" width="16" height="16"><defs><style type="text/css"></style></defs><path d="M390.516364 958.836364H162.909091c-20.573091 0-37.236364-16.663273-37.236364-37.236364V102.4c0-20.573091 16.663273-37.236364 37.236364-37.236364h633.018182c20.573091 0 37.236364 16.663273 37.236363 37.236364v112.174545c0 10.24 8.378182 18.618182 18.618182 18.618182s18.618182-8.378182 18.618182-18.618182V102.4c0-41.053091-33.419636-74.472727-74.472727-74.472727H162.909091c-41.053091 0-74.472727 33.419636-74.472727 74.472727v819.2c0 41.053091 33.419636 74.472727 74.472727 74.472727h227.607273c10.24 0 18.618182-8.378182 18.618181-18.618182s-8.378182-18.618182-18.618181-18.618181z" fill="#ffffff" p-id="825"></path><path d="M749.381818 233.192727c0-10.24-8.378182-18.618182-18.618182-18.618182H228.072727c-10.24 0-18.618182 8.378182-18.618182 18.618182s8.378182 18.618182 18.618182 18.618182h502.690909c10.24 0 18.618182-8.378182 18.618182-18.618182z" fill="#ffffff" p-id="826"></path><path d="M887.901091 311.668364c-44.497455-25.693091-100.445091-12.194909-124.834909 30.068363l-279.272727 483.700364c-11.543273 20.014545-19.362909 52.503273-19.828364 82.757818-0.651636 39.377455 11.077818 67.956364 32.954182 80.616727 8.285091 4.840727 17.873455 7.168 28.392727 7.168 17.221818 0 36.957091-6.330182 57.902545-18.897454 25.972364-15.546182 50.269091-38.539636 61.812364-58.554182l279.272727-483.700364c24.389818-42.263273 8.005818-97.466182-36.398545-123.159272z m4.096 104.541091l-12.101818 20.945454c8.843636 5.12 11.915636 16.570182 6.795636 25.413818-5.12 8.843636-16.570182 11.915636-25.413818 6.795637l-248.552727 430.545454c-8.378182 14.429091-28.392727 33.047273-48.686546 45.242182-20.666182 12.381091-39.284364 16.849455-48.593454 11.450182-9.216-5.306182-14.708364-23.645091-14.336-47.755637 0.372364-23.645091 6.516364-50.362182 14.894545-64.791272l248.552727-430.545455c-8.843636-5.12-11.915636-16.570182-6.795636-25.413818 5.12-8.843636 16.570182-11.915636 25.413818-6.795636l12.101818-20.945455c9.122909-15.825455 26.158545-24.482909 44.311273-24.482909 9.960727 0 20.200727 2.606545 29.602909 8.005818 26.717091 15.453091 36.957091 47.848727 22.807273 72.331637z" fill="#ffffff" p-id="827"></path><path d="M783.173818 381.300364c-8.843636-5.12-20.293818-2.048-25.413818 6.795636s-2.048 20.293818 6.795636 25.413818l96.721455 55.854546c8.843636 5.12 20.293818 2.048 25.413818-6.795637s2.048-20.293818-6.795636-25.413818l-96.721455-55.854545z" fill="#ffffff" p-id="828"></path><path d="M656.290909 419.374545c0-10.24-8.378182-18.618182-18.618182-18.618181H228.072727c-10.24 0-18.618182 8.378182-18.618182 18.618181s8.378182 18.618182 18.618182 18.618182h409.6c10.24 0 18.618182-8.378182 18.618182-18.618182zM228.072727 587.869091c-10.24 0-18.618182 8.378182-18.618182 18.618182s8.378182 18.618182 18.618182 18.618182h242.036364c10.24 0 18.618182-8.378182 18.618182-18.618182s-8.378182-18.618182-18.618182-18.618182H228.072727z" fill="#ffffff" p-id="829"></path></svg>