<?xml version="1.0" standalone="no"?><!DOCTYPE svg PUBLIC "-//W3C//DTD SVG 1.1//EN" "http://www.w3.org/Graphics/SVG/1.1/DTD/svg11.dtd"><svg t="1495105426087" class="icon" style="" viewBox="0 0 1024 1024" version="1.1" xmlns="http://www.w3.org/2000/svg" p-id="3683" xmlns:xlink="http://www.w3.org/1999/xlink" width="200" height="200"><defs><style type="text/css"></style></defs><path d="M862.766545 178.362182c-7.074909-7.447273-18.897455-7.726545-26.344727-0.651637-7.447273 7.074909-7.726545 18.897455-0.651636 26.344728C915.083636 287.464727 958.836364 396.846545 958.836364 512c0 60.322909-11.822545 118.877091-35.095273 173.893818-22.528 53.248-54.737455 101.003636-95.790546 142.056727S739.141818 901.213091 685.893818 923.741091c-55.109818 23.272727-113.570909 35.095273-173.893818 35.095273s-118.877091-11.822545-173.893818-35.095273c-53.248-22.528-101.003636-54.737455-142.056727-95.790546S122.786909 739.141818 100.258909 685.893818C76.986182 630.877091 65.163636 572.322909 65.163636 512s11.822545-118.877091 35.095273-173.893818c22.528-53.248 54.737455-101.003636 95.790546-142.056727s88.808727-73.262545 142.056727-95.790546C393.122909 76.986182 451.677091 65.163636 512 65.163636c78.103273 0 154.996364 20.48 222.301091 59.112728 8.936727 5.12 20.293818 2.048 25.413818-6.888728 5.12-8.936727 2.048-20.293818-6.888727-25.413818C679.936 50.082909 596.619636 27.927273 512 27.927273c-65.349818 0-128.744727 12.846545-188.416 38.074182-57.623273 24.389818-109.381818 59.298909-153.879273 103.703272S90.391273 265.960727 66.001455 323.584C40.773818 383.255273 27.927273 446.650182 27.927273 512s12.846545 128.744727 38.074182 188.416c24.389818 57.623273 59.298909 109.381818 103.703272 153.879273 44.404364 44.497455 96.256 79.313455 153.879273 103.703272 59.671273 25.227636 123.066182 38.074182 188.416 38.074182s128.744727-12.846545 188.416-38.074182c57.623273-24.389818 109.381818-59.298909 153.879273-103.703272 44.497455-44.404364 79.313455-96.256 103.703272-153.879273 25.227636-59.671273 38.074182-123.066182 38.074182-188.416 0-124.834909-47.383273-243.246545-133.306182-333.637818z" fill="#ffffff" p-id="3684"></path><path d="M625.012364 235.52c-7.261091-7.261091-19.083636-7.261091-26.344728 0L348.532364 485.655273c-7.074909 7.074909-10.891636 16.384-10.891637 26.344727s3.909818 19.269818 10.891637 26.344727L598.667636 788.48c3.630545 3.630545 8.378182 5.492364 13.125819 5.492364s9.495273-1.861818 13.125818-5.492364c7.261091-7.261091 7.261091-19.083636 0-26.344727L374.877091 512l250.135273-250.135273c7.261091-7.261091 7.261091-19.083636 0-26.344727z" fill="#ffffff" p-id="3685"></path></svg>