<?xml version="1.0" standalone="no"?><!DOCTYPE svg PUBLIC "-//W3C//DTD SVG 1.1//EN" "http://www.w3.org/Graphics/SVG/1.1/DTD/svg11.dtd"><svg t="1495107685088" class="icon" style="" viewBox="0 0 1024 1024" version="1.1" xmlns="http://www.w3.org/2000/svg" p-id="2230" xmlns:xlink="http://www.w3.org/1999/xlink" width="200" height="200"><defs><style type="text/css"></style></defs><path d="M455.851189 711.444425c-6.78452 0-13.291724-2.695389-18.090007-7.492648L253.66021 519.850805c-9.990538-9.990538-9.990538-26.188452 0-36.178991 9.991562-9.989515 26.189476-9.989515 36.178991 0l166.010965 166.010965 283.166221-283.166221c9.991562-9.990538 26.188452-9.990538 36.178991 0 9.990538 9.990538 9.990538 26.188452 0 36.178991L473.940173 703.951777C469.142913 708.750059 462.635709 711.444425 455.851189 711.444425z" p-id="2231" fill="#ffffff"></path><path d="M511.519046 957.401186c-60.101843 0-118.41904-11.777231-173.331697-35.002189-53.026704-22.428825-100.644211-54.530964-141.529387-95.41614s-72.988338-88.50166-95.41614-141.529387c-23.225981-54.912657-35.003212-113.229854-35.003212-173.331697s11.776208-118.418017 35.003212-173.330674c22.427802-53.026704 54.530964-100.644211 95.41614-141.529387s88.502683-72.988338 141.529387-95.41614c54.912657-23.225981 113.229854-35.003212 173.331697-35.003212 60.10082 0 118.418017 11.776208 173.330674 35.003212 53.026704 22.427802 100.645235 54.530964 141.53041 95.41614s72.987315 88.502683 95.41614 141.529387c23.224957 54.912657 35.002189 113.229854 35.002189 173.330674s-11.777231 118.41904-35.002189 173.331697c-22.428825 53.026704-54.530964 100.644211-95.41614 141.529387s-88.502683 72.987315-141.53041 95.41614C629.937063 945.623955 571.619866 957.401186 511.519046 957.401186zM511.519046 118.008694c-217.315444 0-394.114103 176.798659-394.114103 394.114103 0 217.314421 176.798659 394.114103 394.114103 394.114103 217.314421 0 394.114103-176.798659 394.114103-394.114103C905.633149 294.807353 728.833467 118.008694 511.519046 118.008694z" p-id="2232" fill="#ffffff"></path></svg>